<?xml version="1.0" standalone="no"?>
<!DOCTYPE svg PUBLIC "-//W3C//DTD SVG 20010904//EN"
 "http://www.w3.org/TR/2001/REC-SVG-20010904/DTD/svg10.dtd">
<svg version="1.0" xmlns="http://www.w3.org/2000/svg"
 width="526.000000pt" height="526.000000pt" viewBox="0 0 526.000000 526.000000"
 preserveAspectRatio="xMidYMid meet">
<metadata>
Created by potrace 1.11, written by Peter Selinger 2001-2013
</metadata>
<g transform="translate(0.000000,526.000000) scale(0.100000,-0.100000)"
fill="#000000" stroke="none">
<path d="M1068 4659 c-15 -4 -29 -4 -32 -1 -3 3 -6 1 -6 -5 0 -6 -10 -11 -22
-11 -13 0 -50 -12 -83 -26 -33 -15 -62 -27 -65 -28 -12 -2 -35 -12 -40 -18 -3
-3 -21 -17 -40 -30 -45 -30 -158 -149 -166 -175 -4 -11 -10 -22 -13 -25 -4 -3
-19 -41 -35 -85 -43 -125 -47 -148 -46 -235 2 -62 6 -115 10 -115 1 0 3 -11 4
-25 3 -25 10 -48 27 -85 6 -12 11 -29 13 -38 1 -10 9 -26 17 -35 8 -9 14 -39
15 -67 1 -63 12 -222 19 -261 3 -16 7 -42 9 -59 11 -68 26 -145 46 -235 12
-52 24 -106 26 -119 3 -13 10 -34 16 -45 6 -12 11 -23 11 -26 0 -3 1 -9 2 -15
6 -18 18 -70 19 -77 1 -3 4 -10 9 -14 4 -4 7 -18 7 -30 0 -13 5 -26 10 -29 6
-3 10 -15 10 -26 0 -10 4 -27 9 -37 5 -9 13 -28 19 -42 5 -14 15 -38 22 -55 8
-16 14 -36 16 -43 1 -6 12 -32 23 -57 48 -104 60 -131 63 -145 2 -8 6 -17 9
-20 3 -3 32 -57 64 -120 63 -124 192 -347 212 -368 7 -8 11 -18 8 -23 -4 -5
-3 -9 2 -9 4 0 24 -24 43 -53 66 -98 169 -238 217 -294 26 -31 47 -60 46 -64
-2 -5 4 -9 12 -9 8 0 15 -4 15 -8 0 -12 212 -225 295 -297 38 -33 77 -67 86
-75 32 -28 45 -37 66 -49 12 -6 27 -17 35 -24 13 -13 207 -142 220 -146 4 -1
27 -13 50 -26 57 -31 208 -105 215 -105 3 0 35 -14 70 -30 50 -24 68 -28 83
-20 11 6 20 8 20 4 0 -3 7 0 16 7 9 7 21 14 28 15 6 1 46 18 88 38 42 20 84
36 93 36 8 0 15 5 15 10 0 6 7 10 15 10 8 0 15 4 15 9 0 9 48 26 63 23 4 -1 7
2 7 7 0 5 33 28 73 52 39 24 83 51 97 62 14 10 61 44 105 76 44 32 90 68 102
80 12 11 24 21 26 21 15 0 252 231 327 319 25 29 57 67 73 84 15 17 27 35 27
39 0 5 5 6 10 3 6 -3 10 1 10 10 0 9 4 14 9 11 5 -3 14 8 20 24 5 17 15 30 20
30 6 0 11 7 11 15 0 9 7 18 15 21 8 4 12 10 9 15 -3 5 -1 9 3 9 5 0 17 16 27
35 11 19 23 35 28 35 5 0 13 11 18 25 12 32 91 155 100 155 4 0 7 6 7 13 0 6
13 32 29 57 15 25 28 47 29 50 0 3 11 23 24 45 14 22 40 69 58 105 18 36 33
58 33 50 1 -14 28 49 34 79 1 8 8 17 14 19 7 2 9 8 6 13 -3 6 1 18 9 27 9 9
15 19 15 22 -2 14 15 50 23 50 6 0 8 4 4 9 -3 5 -1 12 5 16 6 4 8 10 5 15 -3
5 -1 11 5 15 6 4 7 11 4 17 -4 6 -2 8 3 5 11 -7 23 13 23 38 0 7 9 34 20 59
11 26 19 49 19 53 0 3 3 9 8 12 7 5 27 68 37 116 1 6 8 28 15 50 15 46 18 57
20 67 1 4 8 26 16 49 8 23 12 45 9 50 -3 5 -1 9 4 9 6 0 13 7 16 16 4 10 2 13
-7 8 -9 -6 -9 -4 -1 7 10 12 27 79 40 158 3 14 7 37 9 51 12 61 36 227 36 250
1 14 6 33 11 44 8 14 7 17 -4 11 -10 -6 -10 -5 -2 4 7 8 10 45 8 99 -2 48 -5
170 -8 271 -4 137 -8 186 -18 192 -21 13 -49 33 -68 49 -24 20 -74 54 -130 89
-64 40 -355 165 -445 191 -83 24 -102 29 -177 48 -42 11 -81 22 -86 26 -5 3
-37 10 -73 16 -89 14 -122 20 -139 25 -8 3 -36 7 -62 10 -26 3 -67 12 -92 19
-26 8 -43 10 -40 4 4 -7 0 -6 -13 0 -10 6 -39 10 -63 10 -25 0 -47 1 -50 2 -6
2 -34 5 -155 15 -127 10 -749 12 -875 2 -143 -11 -175 -14 -218 -21 -20 -4
-59 -8 -87 -11 -58 -6 -100 -12 -135 -20 -14 -3 -38 -7 -55 -10 -35 -5 -75
-12 -130 -23 -32 -7 -46 -5 -70 12 -16 11 -32 23 -35 26 -12 15 -145 72 -202
86 -68 18 -207 25 -250 13z"/>
</g>
</svg>
